# xmcd CD database file
#
# Track frame offsets:
#	150
#	37500
#	84300
#	90338
#	134588
#	172088
#	223913
#	262613
#	301216
#
# Disc length: 4414 seconds
#
# Revision: 0
# Processed by: cddbd v1.5.1PL2 Copyright (c) Steve Scherf et al.
# Submitted via: CDex 1.51
#
DISCID=68113c09
DTITLE=Andreas Hirche and Stefan Kuchel - Yoga
DYEAR=2003
DGENRE=Jazz
TTITLE0=Sandwelt
TTITLE1=Africano
TTITLE2=Kommen Und Gehen
TTITLE3=Yoga
TTITLE4=The Song Is The Song Is The...
TTITLE5=Wellen
TTITLE6=Caesar and Franck
TTITLE7=Choral
TTITLE8=Sprungblues
EXTD=YEAR: 2003
EXTT0=
EXTT1=
EXTT2=
EXTT3=
EXTT4=
EXTT5=
EXTT6=
EXTT7=
EXTT8=
PLAYORDER=
